<!--?xml version="1.0" encoding="UTF-8"?-->
<svg xmlns="http://www.w3.org/2000/svg" width="900" height="520" viewBox="0 0 900 520">
  <title>Иллюстрация настольных игр</title>
  <desc>Игровое поле, фишки и кубик</desc>

  <defs>
    <linearGradient id="g" x1="0" y1="0" x2="1" y2="1">
      <stop offset="0" stop-color="#8ab4ff" stop-opacity="0.35"></stop>
      <stop offset="1" stop-color="#7ee081" stop-opacity="0.25"></stop>
    </linearGradient>
  </defs>

  <rect x="20" y="20" width="860" height="480" rx="28" fill="url(#g)" stroke="#2a3563" stroke-width="6"></rect>
  <rect x="80" y="90" width="520" height="320" rx="22" fill="#0f1730" stroke="#2a3563" stroke-width="6"></rect>

  <path d="M80 250h520" stroke="#2a3563" stroke-width="6"></path>
  <path d="M340 90v320" stroke="#2a3563" stroke-width="6"></path>

  <circle cx="210" cy="170" r="34" fill="#7ee081" fill-opacity="0.35" stroke="#2a3563" stroke-width="6"></circle>
  <circle cx="470" cy="330" r="34" fill="#8ab4ff" fill-opacity="0.35" stroke="#2a3563" stroke-width="6"></circle>

  <rect x="650" y="120" width="170" height="170" rx="24" fill="#121a33" stroke="#2a3563" stroke-width="6"></rect>
  <circle cx="700" cy="170" r="12" fill="#f2f4ff"></circle>
  <circle cx="770" cy="170" r="12" fill="#f2f4ff"></circle>
  <circle cx="700" cy="240" r="12" fill="#f2f4ff"></circle>
  <circle cx="770" cy="240" r="12" fill="#f2f4ff"></circle>

  <path d="M690 410c0-38 30-68 68-68s68 30 68 68v30H690z" fill="#121a33" stroke="#2a3563" stroke-width="6"></path>
  <circle cx="758" cy="360" r="18" fill="#f2f4ff"></circle>
</svg>
