<svg xmlns="http://www.w3.org/2000/svg" width="640" height="400" viewBox="0 0 640 400">
  <rect width="640" height="400" rx="28" fill="#121829"/>
  <g transform="translate(160 84)" stroke="rgba(233,237,247,.45)" stroke-width="6" stroke-linejoin="round">
    <path d="M40 260 v-120 h80 v120 z" fill="rgba(122,162,255,.16)"/>
    <path d="M160 260 v-160 h120 v160 z" fill="rgba(46,229,157,.14)"/>
    <path d="M300 260 v-120 h80 v120 z" fill="rgba(122,162,255,.16)"/>
    <path d="M40 140 v-40 l20 20 l20-20 l20 20 l20-20 v40" fill="rgba(255,255,255,.05)"/>
    <path d="M300 140 v-40 l20 20 l20-20 l20 20 l20-20 v40" fill="rgba(255,255,255,.05)"/>
    <path d="M160 100 v-40 l20 20 l20-20 l20 20 l20-20 v40" fill="rgba(255,255,255,.05)"/>
    <path d="M20 260 h420 v40 h-420 z" fill="rgba(255,255,255,.04)"/>
    <path d="M210 260 v-76 c0-22 18-40 40-40 s40 18 40 40 v76 z" fill="rgba(18,24,41,.65)"/>
  </g>
  <text x="26" y="56" fill="rgba(233,237,247,.85)" font-size="28" font-family="system-ui, -apple-system, Segoe UI, Roboto">Carcassonne</text>
</svg>