<svg xmlns="http://www.w3.org/2000/svg" width="640" height="400" viewBox="0 0 640 400">
  <rect width="640" height="400" rx="28" fill="#121829"/>
  <g transform="translate(320 72)" fill="none" stroke="rgba(233,237,247,.8)" stroke-width="10" stroke-linecap="round" stroke-linejoin="round">
    <path d="M0 0 v38" />
    <path d="M-18 18 h36" />
    <path d="M-64 78 h128" />
  </g>
  <g transform="translate(320 248)">
    <path d="M -62 90 h124 a18 18 0 0 1 18 18 v18 h-160 v-18 a18 18 0 0 1 18-18z" fill="rgba(233,237,247,.10)" stroke="rgba(233,237,247,.35)" stroke-width="6"/>
    <path d="M -40 90 c 18-26 18-56 0-82 c -10-14 -10-30 0-44 h80 c 10 14 10 30 0 44 c -18 26 -18 56 0 82 z"
          fill="rgba(122,162,255,.18)" stroke="rgba(233,237,247,.55)" stroke-width="6" />
    <circle cx="0" cy="46" r="22" fill="rgba(46,229,157,.18)" stroke="rgba(233,237,247,.55)" stroke-width="6"/>
  </g>
  <text x="26" y="56" fill="rgba(233,237,247,.85)" font-size="28" font-family="system-ui, -apple-system, Segoe UI, Roboto">Шахматы</text>
</svg>